<mxfile host="app.diagrams.net" modified="2023-08-18T05:33:16.798Z" agent="Mozilla/5.0 (Windows NT 10.0; Win64; x64) AppleWebKit/537.36 (KHTML, like Gecko) Chrome/115.0.0.0 Safari/537.36" etag="eSmu-GP_WWC-8xSAP0pJ" version="21.6.8" type="github" pages="6">
  <diagram name="Home" id="2cc2dc42-3aac-f2a9-1cec-7a8b7cbee084">
    <mxGraphModel dx="1400" dy="732" grid="1" gridSize="10" guides="1" tooltips="1" connect="1" arrows="1" fold="1" page="1" pageScale="1" pageWidth="1100" pageHeight="850" background="none" math="0" shadow="0">
      <root>
        <mxCell id="0" />
        <mxCell id="1" parent="0" />
        <mxCell id="7026571954dc6520-1" value="" style="strokeWidth=1;shadow=0;dashed=0;align=center;html=1;shape=mxgraph.mockup.containers.browserWindow;rSize=0;strokeColor=#666666;mainText=,;recursiveResize=0;rounded=0;labelBackgroundColor=none;fontFamily=Verdana;fontSize=12" parent="1" vertex="1">
          <mxGeometry x="29" y="15" width="1050" height="820" as="geometry" />
        </mxCell>
        <mxCell id="HcQrXLXBUA2WYtqgKQpi-32" value="" style="rounded=0;whiteSpace=wrap;html=1;fillColor=#000000;" parent="7026571954dc6520-1" vertex="1">
          <mxGeometry x="1" y="112" width="1048" height="90" as="geometry" />
        </mxCell>
        <mxCell id="7026571954dc6520-2" value="Page 1" style="strokeWidth=1;shadow=0;dashed=0;align=center;html=1;shape=mxgraph.mockup.containers.anchor;fontSize=17;fontColor=#666666;align=left;" parent="7026571954dc6520-1" vertex="1">
          <mxGeometry x="60" y="12" width="110" height="26" as="geometry" />
        </mxCell>
        <mxCell id="7026571954dc6520-3" value="https://www.default.com" style="strokeWidth=1;shadow=0;dashed=0;align=center;html=1;shape=mxgraph.mockup.containers.anchor;rSize=0;fontSize=17;fontColor=#666666;align=left;" parent="7026571954dc6520-1" vertex="1">
          <mxGeometry x="130" y="60" width="250" height="26" as="geometry" />
        </mxCell>
        <mxCell id="7026571954dc6520-4" value="Together cycling (logo)" style="text;html=1;points=[];align=left;verticalAlign=top;spacingTop=-4;fontSize=30;fontFamily=Verdana;fontColor=#FFFFFF;" parent="7026571954dc6520-1" vertex="1">
          <mxGeometry x="30" y="140" width="340" height="50" as="geometry" />
        </mxCell>
        <mxCell id="HcQrXLXBUA2WYtqgKQpi-2" value="Our rides" style="fillColor=none;strokeColor=none;fontSize=14;fontColor=#FFFFFF;fontFamily=Verdana;labelBackgroundColor=none;flipH=1;" parent="7026571954dc6520-1" vertex="1">
          <mxGeometry x="762" y="140" width="66" height="40" as="geometry" />
        </mxCell>
        <mxCell id="HcQrXLXBUA2WYtqgKQpi-3" value="Ride with us" style="fillColor=none;strokeColor=none;fontSize=14;fontColor=#FFFFFF;fontFamily=Verdana;labelBackgroundColor=none;flipH=1;" parent="7026571954dc6520-1" vertex="1">
          <mxGeometry x="941" y="140" width="80" height="40" as="geometry" />
        </mxCell>
        <mxCell id="HcQrXLXBUA2WYtqgKQpi-5" value="" style="rounded=0;whiteSpace=wrap;html=1;labelBackgroundColor=#000000;fillColor=#000000;" parent="7026571954dc6520-1" vertex="1">
          <mxGeometry y="760" width="1050" height="60" as="geometry" />
        </mxCell>
        <mxCell id="HcQrXLXBUA2WYtqgKQpi-6" value="&lt;font face=&quot;Verdana&quot;&gt;Together cycling&amp;nbsp;&lt;/font&gt;Â©&lt;font face=&quot;Verdana&quot;&gt;&amp;nbsp;Stockholm&lt;/font&gt;" style="html=1;shadow=0;dashed=0;shape=mxgraph.bootstrap.rrect;rSize=5;fillColor=none;strokeColor=none;fontSize=14;fontColor=#FFFFFF;align=left;" parent="7026571954dc6520-1" vertex="1">
          <mxGeometry x="34" y="768" width="60" height="40" as="geometry" />
        </mxCell>
        <mxCell id="HcQrXLXBUA2WYtqgKQpi-7" value="contact@togethercycling.se" style="fillColor=none;strokeColor=none;fontSize=14;fontColor=#FFFFFF;fontFamily=Verdana;align=center;" parent="7026571954dc6520-1" vertex="1">
          <mxGeometry x="527" y="768" width="70" height="40" as="geometry" />
        </mxCell>
        <mxCell id="HcQrXLXBUA2WYtqgKQpi-8" value="Follow us: Instagram | YouTube | Strava" style="fillColor=none;strokeColor=none;fontSize=14;fontColor=#FFFFFF;fontFamily=Verdana;align=right;" parent="7026571954dc6520-1" vertex="1">
          <mxGeometry x="967" y="768" width="60" height="40" as="geometry" />
        </mxCell>
        <mxCell id="HcQrXLXBUA2WYtqgKQpi-33" value="About us" style="fillColor=none;strokeColor=none;fontSize=14;fontColor=#FFFFFF;fontFamily=Verdana;labelBackgroundColor=none;flipH=1;" parent="7026571954dc6520-1" vertex="1">
          <mxGeometry x="675" y="140" width="65" height="40" as="geometry" />
        </mxCell>
        <mxCell id="bMK1Hllt9kyeNREvwh98-1" value="Our rules" style="fillColor=none;strokeColor=none;fontSize=14;fontColor=#FFFFFF;fontFamily=Verdana;labelBackgroundColor=none;flipH=1;" vertex="1" parent="7026571954dc6520-1">
          <mxGeometry x="851" y="140" width="67" height="40" as="geometry" />
        </mxCell>
        <mxCell id="HcQrXLXBUA2WYtqgKQpi-31" value="" style="whiteSpace=wrap;html=1;" parent="1" vertex="1">
          <mxGeometry x="785" y="489" width="250" height="259" as="geometry" />
        </mxCell>
        <mxCell id="HcQrXLXBUA2WYtqgKQpi-9" value="&lt;h1 style=&quot;&quot;&gt;&lt;font face=&quot;Verdana&quot; style=&quot;font-size: 40px;&quot;&gt;Peleton in Stockholm&lt;/font&gt;&lt;/h1&gt;&lt;font face=&quot;Verdana&quot; style=&quot;font-size: 16px;&quot;&gt;Group rides through Stockholm urban areas. Structured rides with focus on different techniques, pace and classifications. Respectful rides following common cyclist rules. Get stronger together!&lt;/font&gt;" style="text;html=1;strokeColor=none;fillColor=none;spacing=5;spacingTop=-20;whiteSpace=wrap;overflow=hidden;rounded=0;" parent="1" vertex="1">
          <mxGeometry x="132" y="473" width="539" height="207" as="geometry" />
        </mxCell>
        <mxCell id="HcQrXLXBUA2WYtqgKQpi-24" value="Name" style="fillColor=none;strokeColor=none;align=left;fontSize=14;" parent="1" vertex="1">
          <mxGeometry width="200" height="40" relative="1" as="geometry">
            <mxPoint x="813" y="500" as="offset" />
          </mxGeometry>
        </mxCell>
        <mxCell id="HcQrXLXBUA2WYtqgKQpi-25" value="" style="html=1;shadow=0;dashed=0;shape=mxgraph.bootstrap.rrect;rSize=5;fillColor=none;strokeColor=#999999;align=left;spacing=15;fontSize=14;fontColor=#6C767D;" parent="1" vertex="1">
          <mxGeometry width="200" height="30" relative="1" as="geometry">
            <mxPoint x="813" y="540" as="offset" />
          </mxGeometry>
        </mxCell>
        <mxCell id="HcQrXLXBUA2WYtqgKQpi-27" value="E-mail" style="fillColor=none;strokeColor=none;align=left;fontSize=14;" parent="1" vertex="1">
          <mxGeometry width="200" height="40" relative="1" as="geometry">
            <mxPoint x="813" y="573" as="offset" />
          </mxGeometry>
        </mxCell>
        <mxCell id="HcQrXLXBUA2WYtqgKQpi-28" value="" style="html=1;shadow=0;dashed=0;shape=mxgraph.bootstrap.rrect;rSize=5;fillColor=none;strokeColor=#999999;align=left;spacing=15;fontSize=14;fontColor=#6C767D;" parent="1" vertex="1">
          <mxGeometry width="200" height="30" relative="1" as="geometry">
            <mxPoint x="813" y="613" as="offset" />
          </mxGeometry>
        </mxCell>
        <mxCell id="HcQrXLXBUA2WYtqgKQpi-29" value="I agree to receiving emails." style="html=1;shadow=0;dashed=0;shape=mxgraph.bootstrap.rrect;rSize=2;fillColor=#EDEDED;strokeColor=#999999;align=left;fontSize=14;fontColor=#000000;labelPosition=right;verticalLabelPosition=middle;verticalAlign=middle;spacingLeft=5;spacingTop=-2;gradientColor=#DEDEDE;" parent="1" vertex="1">
          <mxGeometry width="10" height="10" relative="1" as="geometry">
            <mxPoint x="813" y="663" as="offset" />
          </mxGeometry>
        </mxCell>
        <mxCell id="HcQrXLXBUA2WYtqgKQpi-30" value="Send" style="html=1;shadow=0;dashed=0;shape=mxgraph.bootstrap.rrect;rSize=5;fillColor=#0085FC;strokeColor=none;align=center;fontSize=14;fontColor=#FFFFFF;" parent="1" vertex="1">
          <mxGeometry width="60" height="40" relative="1" as="geometry">
            <mxPoint x="813" y="693" as="offset" />
          </mxGeometry>
        </mxCell>
        <mxCell id="HcQrXLXBUA2WYtqgKQpi-34" value="Ride with us" style="fillColor=none;strokeColor=none;fontSize=15;fontColor=#000000;fontFamily=Verdana;labelBackgroundColor=none;fontStyle=1;align=left;" parent="1" vertex="1">
          <mxGeometry x="787" y="444" width="60" height="40" as="geometry" />
        </mxCell>
      </root>
    </mxGraphModel>
  </diagram>
  <diagram name="About us" id="CAdoBZkpH4DLl8WYCM4p">
    <mxGraphModel dx="1400" dy="732" grid="1" gridSize="10" guides="1" tooltips="1" connect="1" arrows="1" fold="1" page="1" pageScale="1" pageWidth="1100" pageHeight="850" background="none" math="0" shadow="0">
      <root>
        <mxCell id="GdTPwVMepUJoZ8WYXv3g-0" />
        <mxCell id="GdTPwVMepUJoZ8WYXv3g-1" parent="GdTPwVMepUJoZ8WYXv3g-0" />
        <mxCell id="GdTPwVMepUJoZ8WYXv3g-2" value="" style="strokeWidth=1;shadow=0;dashed=0;align=center;html=1;shape=mxgraph.mockup.containers.browserWindow;rSize=0;strokeColor=#666666;mainText=,;recursiveResize=0;rounded=0;labelBackgroundColor=none;fontFamily=Verdana;fontSize=12" parent="GdTPwVMepUJoZ8WYXv3g-1" vertex="1">
          <mxGeometry x="29" y="15" width="1050" height="820" as="geometry" />
        </mxCell>
        <mxCell id="GdTPwVMepUJoZ8WYXv3g-3" value="" style="rounded=0;whiteSpace=wrap;html=1;fillColor=#000000;" parent="GdTPwVMepUJoZ8WYXv3g-2" vertex="1">
          <mxGeometry x="1" y="112" width="1048" height="90" as="geometry" />
        </mxCell>
        <mxCell id="GdTPwVMepUJoZ8WYXv3g-4" value="Page 1" style="strokeWidth=1;shadow=0;dashed=0;align=center;html=1;shape=mxgraph.mockup.containers.anchor;fontSize=17;fontColor=#666666;align=left;" parent="GdTPwVMepUJoZ8WYXv3g-2" vertex="1">
          <mxGeometry x="60" y="12" width="110" height="26" as="geometry" />
        </mxCell>
        <mxCell id="GdTPwVMepUJoZ8WYXv3g-5" value="https://www.default.com" style="strokeWidth=1;shadow=0;dashed=0;align=center;html=1;shape=mxgraph.mockup.containers.anchor;rSize=0;fontSize=17;fontColor=#666666;align=left;" parent="GdTPwVMepUJoZ8WYXv3g-2" vertex="1">
          <mxGeometry x="130" y="60" width="250" height="26" as="geometry" />
        </mxCell>
        <mxCell id="GdTPwVMepUJoZ8WYXv3g-6" value="Together cycling (logo)" style="text;html=1;points=[];align=left;verticalAlign=top;spacingTop=-4;fontSize=30;fontFamily=Verdana;fontColor=#FFFFFF;" parent="GdTPwVMepUJoZ8WYXv3g-2" vertex="1">
          <mxGeometry x="30" y="140" width="340" height="50" as="geometry" />
        </mxCell>
        <mxCell id="GdTPwVMepUJoZ8WYXv3g-9" value="" style="rounded=0;whiteSpace=wrap;html=1;labelBackgroundColor=#000000;fillColor=#000000;" parent="GdTPwVMepUJoZ8WYXv3g-2" vertex="1">
          <mxGeometry y="760" width="1050" height="60" as="geometry" />
        </mxCell>
        <mxCell id="GdTPwVMepUJoZ8WYXv3g-10" value="&lt;font face=&quot;Verdana&quot;&gt;Together cycling&amp;nbsp;&lt;/font&gt;Â©&lt;font face=&quot;Verdana&quot;&gt;&amp;nbsp;Stockholm&lt;/font&gt;" style="html=1;shadow=0;dashed=0;shape=mxgraph.bootstrap.rrect;rSize=5;fillColor=none;strokeColor=none;fontSize=14;fontColor=#FFFFFF;align=left;" parent="GdTPwVMepUJoZ8WYXv3g-2" vertex="1">
          <mxGeometry x="34" y="768" width="60" height="40" as="geometry" />
        </mxCell>
        <mxCell id="GdTPwVMepUJoZ8WYXv3g-11" value="contact@togethercycling.se" style="fillColor=none;strokeColor=none;fontSize=14;fontColor=#FFFFFF;fontFamily=Verdana;align=center;" parent="GdTPwVMepUJoZ8WYXv3g-2" vertex="1">
          <mxGeometry x="527" y="768" width="70" height="40" as="geometry" />
        </mxCell>
        <mxCell id="GdTPwVMepUJoZ8WYXv3g-12" value="Follow us: Instagram | YouTube | Strava" style="fillColor=none;strokeColor=none;fontSize=14;fontColor=#FFFFFF;fontFamily=Verdana;align=right;" parent="GdTPwVMepUJoZ8WYXv3g-2" vertex="1">
          <mxGeometry x="967" y="768" width="60" height="40" as="geometry" />
        </mxCell>
        <mxCell id="RE-2npZGanbsiGVu7ITZ-0" value="&lt;h1&gt;&lt;font face=&quot;Verdana&quot; style=&quot;font-size: 45px;&quot;&gt;About us&lt;/font&gt;&lt;/h1&gt;&lt;h2&gt;&lt;font face=&quot;Verdana&quot; style=&quot;font-size: 20px;&quot;&gt;Who we are&lt;/font&gt;&lt;/h2&gt;&lt;font face=&quot;Verdana&quot; style=&quot;&quot;&gt;&lt;font style=&quot;font-size: 15px;&quot;&gt;We are two brothers that took an interest in cycling in our early 20&#39;s and have been riding more or less every day since that.&lt;/font&gt;&lt;br&gt;&lt;/font&gt;&lt;h3&gt;&lt;font face=&quot;Verdana&quot; style=&quot;font-size: 20px;&quot;&gt;Why we do this&lt;/font&gt;&lt;/h3&gt;&lt;font style=&quot;&quot;&gt;&lt;font face=&quot;Verdana&quot; style=&quot;font-size: 15px;&quot;&gt;We want open up the cycling community to more people and we want to create a respectful and safe cycling environment. We want to increase safety on the roads and increase cycling as a sport in Sweden.&lt;/font&gt;&lt;/font&gt;" style="text;html=1;strokeColor=none;fillColor=none;spacing=5;spacingTop=-20;whiteSpace=wrap;overflow=hidden;rounded=0;" parent="GdTPwVMepUJoZ8WYXv3g-1" vertex="1">
          <mxGeometry x="139" y="302" width="539" height="365" as="geometry" />
        </mxCell>
        <mxCell id="RE-2npZGanbsiGVu7ITZ-3" value="Ride with us!" style="strokeWidth=1;shadow=0;dashed=0;align=center;html=1;shape=mxgraph.mockup.buttons.button;strokeColor=none;mainText=;buttonStyle=round;fontSize=17;fontStyle=0;fillColor=#0085FC;whiteSpace=wrap;rounded=0;labelBackgroundColor=none;fontColor=#FFFFFF;" parent="GdTPwVMepUJoZ8WYXv3g-1" vertex="1">
          <mxGeometry x="139" y="590" width="190" height="30" as="geometry" />
        </mxCell>
        <mxCell id="I3EXngHENBUgH41JQNhy-0" value="Our rides" style="fillColor=none;strokeColor=none;fontSize=14;fontColor=#FFFFFF;fontFamily=Verdana;labelBackgroundColor=none;flipH=1;" vertex="1" parent="GdTPwVMepUJoZ8WYXv3g-1">
          <mxGeometry x="791" y="155" width="66" height="40" as="geometry" />
        </mxCell>
        <mxCell id="I3EXngHENBUgH41JQNhy-1" value="Ride with us" style="fillColor=none;strokeColor=none;fontSize=14;fontColor=#FFFFFF;fontFamily=Verdana;labelBackgroundColor=none;flipH=1;" vertex="1" parent="GdTPwVMepUJoZ8WYXv3g-1">
          <mxGeometry x="970" y="155" width="80" height="40" as="geometry" />
        </mxCell>
        <mxCell id="I3EXngHENBUgH41JQNhy-2" value="About us" style="fillColor=none;strokeColor=none;fontSize=14;fontColor=#FFFFFF;fontFamily=Verdana;labelBackgroundColor=none;flipH=1;" vertex="1" parent="GdTPwVMepUJoZ8WYXv3g-1">
          <mxGeometry x="704" y="155" width="65" height="40" as="geometry" />
        </mxCell>
        <mxCell id="I3EXngHENBUgH41JQNhy-3" value="Our rules" style="fillColor=none;strokeColor=none;fontSize=14;fontColor=#FFFFFF;fontFamily=Verdana;labelBackgroundColor=none;flipH=1;" vertex="1" parent="GdTPwVMepUJoZ8WYXv3g-1">
          <mxGeometry x="880" y="155" width="67" height="40" as="geometry" />
        </mxCell>
      </root>
    </mxGraphModel>
  </diagram>
  <diagram name="Our rides" id="Nrk_8FZvoQKsYI_zQeRy">
    <mxGraphModel dx="1400" dy="732" grid="1" gridSize="10" guides="1" tooltips="1" connect="1" arrows="1" fold="1" page="1" pageScale="1" pageWidth="1100" pageHeight="850" background="none" math="0" shadow="0">
      <root>
        <mxCell id="wJvcCPs6EQD_OEaeVtu5-0" />
        <mxCell id="wJvcCPs6EQD_OEaeVtu5-1" parent="wJvcCPs6EQD_OEaeVtu5-0" />
        <mxCell id="wJvcCPs6EQD_OEaeVtu5-2" value="" style="strokeWidth=1;shadow=0;dashed=0;align=center;html=1;shape=mxgraph.mockup.containers.browserWindow;rSize=0;strokeColor=#666666;mainText=,;recursiveResize=0;rounded=0;labelBackgroundColor=none;fontFamily=Verdana;fontSize=12" parent="wJvcCPs6EQD_OEaeVtu5-1" vertex="1">
          <mxGeometry x="29" y="15" width="1050" height="815" as="geometry" />
        </mxCell>
        <mxCell id="wJvcCPs6EQD_OEaeVtu5-3" value="" style="rounded=0;whiteSpace=wrap;html=1;fillColor=#000000;" parent="wJvcCPs6EQD_OEaeVtu5-2" vertex="1">
          <mxGeometry x="1" y="112" width="1048" height="90" as="geometry" />
        </mxCell>
        <mxCell id="wJvcCPs6EQD_OEaeVtu5-4" value="Page 1" style="strokeWidth=1;shadow=0;dashed=0;align=center;html=1;shape=mxgraph.mockup.containers.anchor;fontSize=17;fontColor=#666666;align=left;" parent="wJvcCPs6EQD_OEaeVtu5-2" vertex="1">
          <mxGeometry x="60" y="12" width="110" height="26" as="geometry" />
        </mxCell>
        <mxCell id="wJvcCPs6EQD_OEaeVtu5-5" value="https://www.default.com" style="strokeWidth=1;shadow=0;dashed=0;align=center;html=1;shape=mxgraph.mockup.containers.anchor;rSize=0;fontSize=17;fontColor=#666666;align=left;" parent="wJvcCPs6EQD_OEaeVtu5-2" vertex="1">
          <mxGeometry x="130" y="60" width="250" height="26" as="geometry" />
        </mxCell>
        <mxCell id="wJvcCPs6EQD_OEaeVtu5-6" value="Together cycling (logo)" style="text;html=1;points=[];align=left;verticalAlign=top;spacingTop=-4;fontSize=30;fontFamily=Verdana;fontColor=#FFFFFF;" parent="wJvcCPs6EQD_OEaeVtu5-2" vertex="1">
          <mxGeometry x="30" y="140" width="340" height="50" as="geometry" />
        </mxCell>
        <mxCell id="wJvcCPs6EQD_OEaeVtu5-9" value="" style="rounded=0;whiteSpace=wrap;html=1;labelBackgroundColor=#000000;fillColor=#000000;" parent="wJvcCPs6EQD_OEaeVtu5-2" vertex="1">
          <mxGeometry y="760" width="1050" height="60" as="geometry" />
        </mxCell>
        <mxCell id="wJvcCPs6EQD_OEaeVtu5-10" value="&lt;font face=&quot;Verdana&quot;&gt;Together cycling&amp;nbsp;&lt;/font&gt;Â©&lt;font face=&quot;Verdana&quot;&gt;&amp;nbsp;Stockholm&lt;/font&gt;" style="html=1;shadow=0;dashed=0;shape=mxgraph.bootstrap.rrect;rSize=5;fillColor=none;strokeColor=none;fontSize=14;fontColor=#FFFFFF;align=left;" parent="wJvcCPs6EQD_OEaeVtu5-2" vertex="1">
          <mxGeometry x="34" y="768" width="60" height="40" as="geometry" />
        </mxCell>
        <mxCell id="wJvcCPs6EQD_OEaeVtu5-11" value="contact@togethercycling.se" style="fillColor=none;strokeColor=none;fontSize=14;fontColor=#FFFFFF;fontFamily=Verdana;align=center;" parent="wJvcCPs6EQD_OEaeVtu5-2" vertex="1">
          <mxGeometry x="527" y="768" width="70" height="40" as="geometry" />
        </mxCell>
        <mxCell id="wJvcCPs6EQD_OEaeVtu5-12" value="Follow us: Instagram | YouTube | Strava" style="fillColor=none;strokeColor=none;fontSize=14;fontColor=#FFFFFF;fontFamily=Verdana;align=right;" parent="wJvcCPs6EQD_OEaeVtu5-2" vertex="1">
          <mxGeometry x="967" y="768" width="60" height="40" as="geometry" />
        </mxCell>
        <mxCell id="oQNj1Wd8NVKroyjluavm-9" value="Date | Area | Focus | Length&amp;nbsp;" style="text;html=1;strokeColor=none;fillColor=none;align=left;verticalAlign=middle;whiteSpace=wrap;rounded=0;" parent="wJvcCPs6EQD_OEaeVtu5-2" vertex="1">
          <mxGeometry x="281" y="365" width="200" height="30" as="geometry" />
        </mxCell>
        <mxCell id="iOgMY4smIsxlRIbA-Fhh-0" value="Date | Area | Focus | Length&amp;nbsp;" style="text;html=1;strokeColor=none;fillColor=none;align=left;verticalAlign=middle;whiteSpace=wrap;rounded=0;" vertex="1" parent="wJvcCPs6EQD_OEaeVtu5-2">
          <mxGeometry x="281" y="505" width="200" height="30" as="geometry" />
        </mxCell>
        <mxCell id="iOgMY4smIsxlRIbA-Fhh-1" value="" style="verticalLabelPosition=bottom;shadow=0;dashed=0;align=center;html=1;verticalAlign=top;strokeWidth=1;shape=mxgraph.mockup.misc.map;" vertex="1" parent="wJvcCPs6EQD_OEaeVtu5-2">
          <mxGeometry x="121" y="505" width="130" height="120" as="geometry" />
        </mxCell>
        <mxCell id="iOgMY4smIsxlRIbA-Fhh-2" value="Date | Area | Focus | Length&amp;nbsp;" style="text;html=1;strokeColor=none;fillColor=none;align=left;verticalAlign=middle;whiteSpace=wrap;rounded=0;" vertex="1" parent="wJvcCPs6EQD_OEaeVtu5-2">
          <mxGeometry x="687" y="365" width="200" height="30" as="geometry" />
        </mxCell>
        <mxCell id="iOgMY4smIsxlRIbA-Fhh-3" value="" style="verticalLabelPosition=bottom;shadow=0;dashed=0;align=center;html=1;verticalAlign=top;strokeWidth=1;shape=mxgraph.mockup.misc.map;" vertex="1" parent="wJvcCPs6EQD_OEaeVtu5-2">
          <mxGeometry x="527" y="365" width="130" height="120" as="geometry" />
        </mxCell>
        <mxCell id="iOgMY4smIsxlRIbA-Fhh-4" value="Date | Area | Focus | Length&amp;nbsp;" style="text;html=1;strokeColor=none;fillColor=none;align=left;verticalAlign=middle;whiteSpace=wrap;rounded=0;" vertex="1" parent="wJvcCPs6EQD_OEaeVtu5-2">
          <mxGeometry x="687" y="505" width="200" height="30" as="geometry" />
        </mxCell>
        <mxCell id="iOgMY4smIsxlRIbA-Fhh-5" value="" style="verticalLabelPosition=bottom;shadow=0;dashed=0;align=center;html=1;verticalAlign=top;strokeWidth=1;shape=mxgraph.mockup.misc.map;" vertex="1" parent="wJvcCPs6EQD_OEaeVtu5-2">
          <mxGeometry x="527" y="505" width="130" height="120" as="geometry" />
        </mxCell>
        <mxCell id="wJvcCPs6EQD_OEaeVtu5-15" value="Ride with us!" style="strokeWidth=1;shadow=0;dashed=0;align=center;html=1;shape=mxgraph.mockup.buttons.button;strokeColor=none;mainText=;buttonStyle=round;fontSize=17;fontStyle=0;fillColor=#0085FC;whiteSpace=wrap;rounded=0;labelBackgroundColor=none;fontColor=#FFFFFF;" parent="wJvcCPs6EQD_OEaeVtu5-2" vertex="1">
          <mxGeometry x="121" y="685" width="190" height="30" as="geometry" />
        </mxCell>
        <mxCell id="wJvcCPs6EQD_OEaeVtu5-14" value="&lt;h1&gt;&lt;font face=&quot;Verdana&quot; style=&quot;font-size: 45px;&quot;&gt;Our rides&lt;/font&gt;&lt;/h1&gt;&lt;h2&gt;&lt;br&gt;&lt;/h2&gt;" style="text;html=1;strokeColor=none;fillColor=none;spacing=5;spacingTop=-20;whiteSpace=wrap;overflow=hidden;rounded=0;" parent="wJvcCPs6EQD_OEaeVtu5-1" vertex="1">
          <mxGeometry x="139" y="302" width="539" height="78" as="geometry" />
        </mxCell>
        <mxCell id="b6pZtpcwH-XLunXWIY1P-0" value="" style="verticalLabelPosition=bottom;shadow=0;dashed=0;align=center;html=1;verticalAlign=top;strokeWidth=1;shape=mxgraph.mockup.misc.map;" vertex="1" parent="wJvcCPs6EQD_OEaeVtu5-1">
          <mxGeometry x="150" y="380" width="130" height="120" as="geometry" />
        </mxCell>
        <mxCell id="c12uzP4mFFVCyyMhnff1-0" value="Our rides" style="fillColor=none;strokeColor=none;fontSize=14;fontColor=#FFFFFF;fontFamily=Verdana;labelBackgroundColor=none;flipH=1;" vertex="1" parent="wJvcCPs6EQD_OEaeVtu5-1">
          <mxGeometry x="791" y="155" width="66" height="40" as="geometry" />
        </mxCell>
        <mxCell id="c12uzP4mFFVCyyMhnff1-1" value="Ride with us" style="fillColor=none;strokeColor=none;fontSize=14;fontColor=#FFFFFF;fontFamily=Verdana;labelBackgroundColor=none;flipH=1;" vertex="1" parent="wJvcCPs6EQD_OEaeVtu5-1">
          <mxGeometry x="970" y="155" width="80" height="40" as="geometry" />
        </mxCell>
        <mxCell id="c12uzP4mFFVCyyMhnff1-2" value="About us" style="fillColor=none;strokeColor=none;fontSize=14;fontColor=#FFFFFF;fontFamily=Verdana;labelBackgroundColor=none;flipH=1;" vertex="1" parent="wJvcCPs6EQD_OEaeVtu5-1">
          <mxGeometry x="704" y="155" width="65" height="40" as="geometry" />
        </mxCell>
        <mxCell id="c12uzP4mFFVCyyMhnff1-3" value="Our rules" style="fillColor=none;strokeColor=none;fontSize=14;fontColor=#FFFFFF;fontFamily=Verdana;labelBackgroundColor=none;flipH=1;" vertex="1" parent="wJvcCPs6EQD_OEaeVtu5-1">
          <mxGeometry x="880" y="155" width="67" height="40" as="geometry" />
        </mxCell>
      </root>
    </mxGraphModel>
  </diagram>
  <diagram name="Our rules" id="FScS0GhyVawYFIg59OcR">
    <mxGraphModel dx="1400" dy="732" grid="1" gridSize="10" guides="1" tooltips="1" connect="1" arrows="1" fold="1" page="1" pageScale="1" pageWidth="1100" pageHeight="850" background="none" math="0" shadow="0">
      <root>
        <mxCell id="uWmWWENZlT6MjmnKkT86-0" />
        <mxCell id="uWmWWENZlT6MjmnKkT86-1" parent="uWmWWENZlT6MjmnKkT86-0" />
        <mxCell id="uWmWWENZlT6MjmnKkT86-2" value="" style="strokeWidth=1;shadow=0;dashed=0;align=center;html=1;shape=mxgraph.mockup.containers.browserWindow;rSize=0;strokeColor=#666666;mainText=,;recursiveResize=0;rounded=0;labelBackgroundColor=none;fontFamily=Verdana;fontSize=12" vertex="1" parent="uWmWWENZlT6MjmnKkT86-1">
          <mxGeometry x="29" y="15" width="1050" height="815" as="geometry" />
        </mxCell>
        <mxCell id="uWmWWENZlT6MjmnKkT86-3" value="" style="rounded=0;whiteSpace=wrap;html=1;fillColor=#000000;" vertex="1" parent="uWmWWENZlT6MjmnKkT86-2">
          <mxGeometry x="1" y="112" width="1048" height="90" as="geometry" />
        </mxCell>
        <mxCell id="uWmWWENZlT6MjmnKkT86-4" value="Page 1" style="strokeWidth=1;shadow=0;dashed=0;align=center;html=1;shape=mxgraph.mockup.containers.anchor;fontSize=17;fontColor=#666666;align=left;" vertex="1" parent="uWmWWENZlT6MjmnKkT86-2">
          <mxGeometry x="60" y="12" width="110" height="26" as="geometry" />
        </mxCell>
        <mxCell id="uWmWWENZlT6MjmnKkT86-5" value="https://www.default.com" style="strokeWidth=1;shadow=0;dashed=0;align=center;html=1;shape=mxgraph.mockup.containers.anchor;rSize=0;fontSize=17;fontColor=#666666;align=left;" vertex="1" parent="uWmWWENZlT6MjmnKkT86-2">
          <mxGeometry x="130" y="60" width="250" height="26" as="geometry" />
        </mxCell>
        <mxCell id="uWmWWENZlT6MjmnKkT86-6" value="Together cycling (logo)" style="text;html=1;points=[];align=left;verticalAlign=top;spacingTop=-4;fontSize=30;fontFamily=Verdana;fontColor=#FFFFFF;" vertex="1" parent="uWmWWENZlT6MjmnKkT86-2">
          <mxGeometry x="30" y="140" width="340" height="50" as="geometry" />
        </mxCell>
        <mxCell id="uWmWWENZlT6MjmnKkT86-9" value="" style="rounded=0;whiteSpace=wrap;html=1;labelBackgroundColor=#000000;fillColor=#000000;" vertex="1" parent="uWmWWENZlT6MjmnKkT86-2">
          <mxGeometry y="760" width="1050" height="60" as="geometry" />
        </mxCell>
        <mxCell id="uWmWWENZlT6MjmnKkT86-10" value="&lt;font face=&quot;Verdana&quot;&gt;Together cycling&amp;nbsp;&lt;/font&gt;Â©&lt;font face=&quot;Verdana&quot;&gt;&amp;nbsp;Stockholm&lt;/font&gt;" style="html=1;shadow=0;dashed=0;shape=mxgraph.bootstrap.rrect;rSize=5;fillColor=none;strokeColor=none;fontSize=14;fontColor=#FFFFFF;align=left;" vertex="1" parent="uWmWWENZlT6MjmnKkT86-2">
          <mxGeometry x="34" y="768" width="60" height="40" as="geometry" />
        </mxCell>
        <mxCell id="uWmWWENZlT6MjmnKkT86-11" value="contact@togethercycling.se" style="fillColor=none;strokeColor=none;fontSize=14;fontColor=#FFFFFF;fontFamily=Verdana;align=center;" vertex="1" parent="uWmWWENZlT6MjmnKkT86-2">
          <mxGeometry x="527" y="768" width="70" height="40" as="geometry" />
        </mxCell>
        <mxCell id="uWmWWENZlT6MjmnKkT86-12" value="Follow us: Instagram | YouTube | Strava" style="fillColor=none;strokeColor=none;fontSize=14;fontColor=#FFFFFF;fontFamily=Verdana;align=right;" vertex="1" parent="uWmWWENZlT6MjmnKkT86-2">
          <mxGeometry x="967" y="768" width="60" height="40" as="geometry" />
        </mxCell>
        <mxCell id="uWmWWENZlT6MjmnKkT86-15" value="&lt;ul style=&quot;font-size: 15px; line-height: 150%;&quot;&gt;&lt;li&gt;&lt;font face=&quot;Verdana&quot;&gt;Be respectful to your fellow riders&lt;/font&gt;&lt;/li&gt;&lt;li&gt;&lt;font face=&quot;Verdana&quot;&gt;Be respectful to cars and pedestrians&lt;/font&gt;&lt;/li&gt;&lt;li&gt;&lt;font face=&quot;Verdana&quot;&gt;Follow traffic rules&lt;/font&gt;&lt;/li&gt;&lt;li&gt;&lt;font face=&quot;Verdana&quot;&gt;Use signs (link to useful signs) to communicate in the peleton&lt;/font&gt;&lt;/li&gt;&lt;li&gt;&lt;font face=&quot;Verdana&quot;&gt;Do not take risks&lt;/font&gt;&lt;/li&gt;&lt;li&gt;&lt;font face=&quot;Verdana&quot;&gt;Act and attack responsibly&lt;/font&gt;&lt;/li&gt;&lt;li&gt;&lt;font face=&quot;Verdana&quot;&gt;Have fun!&lt;/font&gt;&lt;/li&gt;&lt;/ul&gt;" style="text;strokeColor=none;fillColor=none;html=1;whiteSpace=wrap;verticalAlign=middle;overflow=hidden;" vertex="1" parent="uWmWWENZlT6MjmnKkT86-2">
          <mxGeometry x="110" y="418" width="387" height="200" as="geometry" />
        </mxCell>
        <mxCell id="gYPLzIFw4GISBXvjmFmB-0" value="&lt;h2 style=&quot;border-color: var(--border-color);&quot;&gt;&lt;/h2&gt;&lt;font style=&quot;border-color: var(--border-color);&quot; face=&quot;Verdana&quot;&gt;&lt;font style=&quot;border-color: var(--border-color); font-size: 15px;&quot;&gt;We want to ensure safe and respectful rides. These are our simple rules:&lt;/font&gt;&lt;br style=&quot;border-color: var(--border-color);&quot;&gt;&lt;/font&gt;&lt;h3 style=&quot;border-color: var(--border-color);&quot;&gt;&lt;br style=&quot;border-color: var(--border-color);&quot;&gt;&lt;/h3&gt;" style="text;html=1;strokeColor=none;fillColor=none;align=left;verticalAlign=middle;whiteSpace=wrap;rounded=0;" vertex="1" parent="uWmWWENZlT6MjmnKkT86-2">
          <mxGeometry x="110" y="369" width="287" height="82.5" as="geometry" />
        </mxCell>
        <mxCell id="uWmWWENZlT6MjmnKkT86-18" value="&lt;h1&gt;&lt;font face=&quot;Verdana&quot; style=&quot;font-size: 45px;&quot;&gt;Our rules&lt;/font&gt;&lt;/h1&gt;&lt;h2&gt;&lt;br&gt;&lt;/h2&gt;" style="text;html=1;strokeColor=none;fillColor=none;spacing=5;spacingTop=-20;whiteSpace=wrap;overflow=hidden;rounded=0;" vertex="1" parent="uWmWWENZlT6MjmnKkT86-1">
          <mxGeometry x="139" y="302" width="539" height="78" as="geometry" />
        </mxCell>
        <mxCell id="uWmWWENZlT6MjmnKkT86-19" value="Ride with us!" style="strokeWidth=1;shadow=0;dashed=0;align=center;html=1;shape=mxgraph.mockup.buttons.button;strokeColor=none;mainText=;buttonStyle=round;fontSize=17;fontStyle=0;fillColor=#0085FC;whiteSpace=wrap;rounded=0;labelBackgroundColor=none;fontColor=#FFFFFF;" vertex="1" parent="uWmWWENZlT6MjmnKkT86-1">
          <mxGeometry x="139" y="689" width="190" height="30" as="geometry" />
        </mxCell>
        <mxCell id="mWqlVM0fPquksm-SVqQU-0" value="Our rides" style="fillColor=none;strokeColor=none;fontSize=14;fontColor=#FFFFFF;fontFamily=Verdana;labelBackgroundColor=none;flipH=1;" vertex="1" parent="uWmWWENZlT6MjmnKkT86-1">
          <mxGeometry x="791" y="155" width="66" height="40" as="geometry" />
        </mxCell>
        <mxCell id="mWqlVM0fPquksm-SVqQU-1" value="Ride with us" style="fillColor=none;strokeColor=none;fontSize=14;fontColor=#FFFFFF;fontFamily=Verdana;labelBackgroundColor=none;flipH=1;" vertex="1" parent="uWmWWENZlT6MjmnKkT86-1">
          <mxGeometry x="970" y="155" width="80" height="40" as="geometry" />
        </mxCell>
        <mxCell id="mWqlVM0fPquksm-SVqQU-2" value="About us" style="fillColor=none;strokeColor=none;fontSize=14;fontColor=#FFFFFF;fontFamily=Verdana;labelBackgroundColor=none;flipH=1;" vertex="1" parent="uWmWWENZlT6MjmnKkT86-1">
          <mxGeometry x="704" y="155" width="65" height="40" as="geometry" />
        </mxCell>
        <mxCell id="mWqlVM0fPquksm-SVqQU-3" value="Our rules" style="fillColor=none;strokeColor=none;fontSize=14;fontColor=#FFFFFF;fontFamily=Verdana;labelBackgroundColor=none;flipH=1;" vertex="1" parent="uWmWWENZlT6MjmnKkT86-1">
          <mxGeometry x="880" y="155" width="67" height="40" as="geometry" />
        </mxCell>
      </root>
    </mxGraphModel>
  </diagram>
  <diagram name="Ride with us" id="It55cUdHE2fHdv3yQGTp">
    <mxGraphModel dx="1400" dy="732" grid="1" gridSize="10" guides="1" tooltips="1" connect="1" arrows="1" fold="1" page="1" pageScale="1" pageWidth="1100" pageHeight="850" background="none" math="0" shadow="0">
      <root>
        <mxCell id="FHqnlU5S1abYgX6eJz_J-0" />
        <mxCell id="FHqnlU5S1abYgX6eJz_J-1" parent="FHqnlU5S1abYgX6eJz_J-0" />
        <mxCell id="FHqnlU5S1abYgX6eJz_J-2" value="" style="strokeWidth=1;shadow=0;dashed=0;align=center;html=1;shape=mxgraph.mockup.containers.browserWindow;rSize=0;strokeColor=#666666;mainText=,;recursiveResize=0;rounded=0;labelBackgroundColor=none;fontFamily=Verdana;fontSize=12" vertex="1" parent="FHqnlU5S1abYgX6eJz_J-1">
          <mxGeometry x="29" y="18" width="1050" height="820" as="geometry" />
        </mxCell>
        <mxCell id="FHqnlU5S1abYgX6eJz_J-3" value="" style="rounded=0;whiteSpace=wrap;html=1;fillColor=#000000;" vertex="1" parent="FHqnlU5S1abYgX6eJz_J-2">
          <mxGeometry x="1" y="112" width="1048" height="90" as="geometry" />
        </mxCell>
        <mxCell id="FHqnlU5S1abYgX6eJz_J-4" value="Page 1" style="strokeWidth=1;shadow=0;dashed=0;align=center;html=1;shape=mxgraph.mockup.containers.anchor;fontSize=17;fontColor=#666666;align=left;" vertex="1" parent="FHqnlU5S1abYgX6eJz_J-2">
          <mxGeometry x="60" y="12" width="110" height="26" as="geometry" />
        </mxCell>
        <mxCell id="FHqnlU5S1abYgX6eJz_J-5" value="https://www.default.com" style="strokeWidth=1;shadow=0;dashed=0;align=center;html=1;shape=mxgraph.mockup.containers.anchor;rSize=0;fontSize=17;fontColor=#666666;align=left;" vertex="1" parent="FHqnlU5S1abYgX6eJz_J-2">
          <mxGeometry x="130" y="60" width="250" height="26" as="geometry" />
        </mxCell>
        <mxCell id="FHqnlU5S1abYgX6eJz_J-6" value="Together cycling (logo)" style="text;html=1;points=[];align=left;verticalAlign=top;spacingTop=-4;fontSize=30;fontFamily=Verdana;fontColor=#FFFFFF;" vertex="1" parent="FHqnlU5S1abYgX6eJz_J-2">
          <mxGeometry x="30" y="140" width="340" height="50" as="geometry" />
        </mxCell>
        <mxCell id="FHqnlU5S1abYgX6eJz_J-9" value="" style="rounded=0;whiteSpace=wrap;html=1;labelBackgroundColor=#000000;fillColor=#000000;" vertex="1" parent="FHqnlU5S1abYgX6eJz_J-2">
          <mxGeometry y="760" width="1050" height="60" as="geometry" />
        </mxCell>
        <mxCell id="FHqnlU5S1abYgX6eJz_J-10" value="&lt;font face=&quot;Verdana&quot;&gt;Together cycling&amp;nbsp;&lt;/font&gt;Â©&lt;font face=&quot;Verdana&quot;&gt;&amp;nbsp;Stockholm&lt;/font&gt;" style="html=1;shadow=0;dashed=0;shape=mxgraph.bootstrap.rrect;rSize=5;fillColor=none;strokeColor=none;fontSize=14;fontColor=#FFFFFF;align=left;" vertex="1" parent="FHqnlU5S1abYgX6eJz_J-2">
          <mxGeometry x="34" y="768" width="60" height="40" as="geometry" />
        </mxCell>
        <mxCell id="FHqnlU5S1abYgX6eJz_J-11" value="contact@togethercycling.se" style="fillColor=none;strokeColor=none;fontSize=14;fontColor=#FFFFFF;fontFamily=Verdana;align=center;" vertex="1" parent="FHqnlU5S1abYgX6eJz_J-2">
          <mxGeometry x="527" y="768" width="70" height="40" as="geometry" />
        </mxCell>
        <mxCell id="FHqnlU5S1abYgX6eJz_J-12" value="Follow us: Instagram | YouTube | Strava" style="fillColor=none;strokeColor=none;fontSize=14;fontColor=#FFFFFF;fontFamily=Verdana;align=right;" vertex="1" parent="FHqnlU5S1abYgX6eJz_J-2">
          <mxGeometry x="967" y="768" width="60" height="40" as="geometry" />
        </mxCell>
        <mxCell id="1yB3BDLKQqFZFzj6YQ2F-4" value="&lt;h1&gt;&lt;font style=&quot;font-size: 15px;&quot; face=&quot;Verdana&quot;&gt;Ride with us!&lt;/font&gt;&lt;/h1&gt;" style="text;html=1;strokeColor=none;fillColor=none;spacing=5;spacingTop=-20;whiteSpace=wrap;overflow=hidden;rounded=0;" vertex="1" parent="FHqnlU5S1abYgX6eJz_J-2">
          <mxGeometry x="105" y="235" width="275" height="120" as="geometry" />
        </mxCell>
        <mxCell id="1yB3BDLKQqFZFzj6YQ2F-5" value="Join Together cycling &#xa;on Strava and share the fun." style="text;strokeColor=none;fillColor=none;spacing=5;spacingTop=-20;whiteSpace=wrap;overflow=hidden;rounded=0;align=left;verticalAlign=middle;" vertex="1" parent="FHqnlU5S1abYgX6eJz_J-2">
          <mxGeometry x="711" y="279.5" width="236" height="120" as="geometry" />
        </mxCell>
        <mxCell id="1yB3BDLKQqFZFzj6YQ2F-7" value="Follow us on YouTube &#xa;for inspirational &#xa;and educational videos." style="text;strokeColor=none;fillColor=none;spacing=5;spacingTop=-20;whiteSpace=wrap;overflow=hidden;rounded=0;verticalAlign=middle;" vertex="1" parent="FHqnlU5S1abYgX6eJz_J-2">
          <mxGeometry x="711" y="451" width="249" height="120" as="geometry" />
        </mxCell>
        <mxCell id="1yB3BDLKQqFZFzj6YQ2F-8" value="" style="verticalLabelPosition=bottom;shadow=0;dashed=0;align=center;html=1;verticalAlign=top;strokeWidth=1;shape=mxgraph.mockup.graphics.simpleIcon;strokeColor=#999999;" vertex="1" parent="FHqnlU5S1abYgX6eJz_J-2">
          <mxGeometry x="520" y="280" width="170" height="120" as="geometry" />
        </mxCell>
        <mxCell id="1yB3BDLKQqFZFzj6YQ2F-9" value="" style="verticalLabelPosition=bottom;shadow=0;dashed=0;align=center;html=1;verticalAlign=top;strokeWidth=1;shape=mxgraph.mockup.graphics.simpleIcon;strokeColor=#999999;" vertex="1" parent="FHqnlU5S1abYgX6eJz_J-2">
          <mxGeometry x="522" y="451" width="170" height="120" as="geometry" />
        </mxCell>
        <mxCell id="FHqnlU5S1abYgX6eJz_J-14" value="" style="whiteSpace=wrap;html=1;" vertex="1" parent="FHqnlU5S1abYgX6eJz_J-1">
          <mxGeometry x="132" y="296" width="288" height="374" as="geometry" />
        </mxCell>
        <mxCell id="FHqnlU5S1abYgX6eJz_J-16" value="First name" style="fillColor=none;strokeColor=none;align=left;fontSize=14;" vertex="1" parent="FHqnlU5S1abYgX6eJz_J-1">
          <mxGeometry width="200" height="40" relative="1" as="geometry">
            <mxPoint x="160" y="307" as="offset" />
          </mxGeometry>
        </mxCell>
        <mxCell id="FHqnlU5S1abYgX6eJz_J-17" value="" style="html=1;shadow=0;dashed=0;shape=mxgraph.bootstrap.rrect;rSize=5;fillColor=none;strokeColor=#999999;align=left;spacing=15;fontSize=14;fontColor=#6C767D;" vertex="1" parent="FHqnlU5S1abYgX6eJz_J-1">
          <mxGeometry width="200" height="30" relative="1" as="geometry">
            <mxPoint x="160" y="347" as="offset" />
          </mxGeometry>
        </mxCell>
        <mxCell id="FHqnlU5S1abYgX6eJz_J-18" value="Last name" style="fillColor=none;strokeColor=none;align=left;fontSize=14;" vertex="1" parent="FHqnlU5S1abYgX6eJz_J-1">
          <mxGeometry y="382" width="200" height="40" relative="1" as="geometry">
            <mxPoint x="160" y="380" as="offset" />
          </mxGeometry>
        </mxCell>
        <mxCell id="FHqnlU5S1abYgX6eJz_J-19" value="" style="html=1;shadow=0;dashed=0;shape=mxgraph.bootstrap.rrect;rSize=5;fillColor=none;strokeColor=#999999;align=left;spacing=15;fontSize=14;fontColor=#6C767D;" vertex="1" parent="FHqnlU5S1abYgX6eJz_J-1">
          <mxGeometry width="200" height="30" relative="1" as="geometry">
            <mxPoint x="160" y="420" as="offset" />
          </mxGeometry>
        </mxCell>
        <mxCell id="FHqnlU5S1abYgX6eJz_J-20" value="I agree to receiving emails." style="html=1;shadow=0;dashed=0;shape=mxgraph.bootstrap.rrect;rSize=2;fillColor=#EDEDED;strokeColor=#999999;align=left;fontSize=14;fontColor=#000000;labelPosition=right;verticalLabelPosition=middle;verticalAlign=middle;spacingLeft=5;spacingTop=-2;gradientColor=#DEDEDE;" vertex="1" parent="FHqnlU5S1abYgX6eJz_J-1">
          <mxGeometry width="10" height="10" relative="1" as="geometry">
            <mxPoint x="162" y="558" as="offset" />
          </mxGeometry>
        </mxCell>
        <mxCell id="FHqnlU5S1abYgX6eJz_J-21" value="Send" style="html=1;shadow=0;dashed=0;shape=mxgraph.bootstrap.rrect;rSize=5;fillColor=#0085FC;strokeColor=none;align=center;fontSize=14;fontColor=#FFFFFF;" vertex="1" parent="FHqnlU5S1abYgX6eJz_J-1">
          <mxGeometry width="60" height="40" relative="1" as="geometry">
            <mxPoint x="160" y="582" as="offset" />
          </mxGeometry>
        </mxCell>
        <mxCell id="jicRHFUs8FzwL2Ja3WoU-1" value="E-mail" style="fillColor=none;strokeColor=none;align=left;fontSize=14;" vertex="1" parent="FHqnlU5S1abYgX6eJz_J-1">
          <mxGeometry x="160" y="453" width="200" height="40" as="geometry" />
        </mxCell>
        <mxCell id="jicRHFUs8FzwL2Ja3WoU-2" value="" style="html=1;shadow=0;dashed=0;shape=mxgraph.bootstrap.rrect;rSize=5;fillColor=none;strokeColor=#999999;align=left;spacing=15;fontSize=14;fontColor=#6C767D;" vertex="1" parent="FHqnlU5S1abYgX6eJz_J-1">
          <mxGeometry x="160" y="493" width="200" height="30" as="geometry" />
        </mxCell>
        <mxCell id="ZSLHKyPtxFfSF65H-u9f-0" value="Our rides" style="fillColor=none;strokeColor=none;fontSize=14;fontColor=#FFFFFF;fontFamily=Verdana;labelBackgroundColor=none;flipH=1;" vertex="1" parent="FHqnlU5S1abYgX6eJz_J-1">
          <mxGeometry x="791" y="155" width="66" height="40" as="geometry" />
        </mxCell>
        <mxCell id="ZSLHKyPtxFfSF65H-u9f-1" value="Ride with us" style="fillColor=none;strokeColor=none;fontSize=14;fontColor=#FFFFFF;fontFamily=Verdana;labelBackgroundColor=none;flipH=1;" vertex="1" parent="FHqnlU5S1abYgX6eJz_J-1">
          <mxGeometry x="970" y="155" width="80" height="40" as="geometry" />
        </mxCell>
        <mxCell id="ZSLHKyPtxFfSF65H-u9f-2" value="About us" style="fillColor=none;strokeColor=none;fontSize=14;fontColor=#FFFFFF;fontFamily=Verdana;labelBackgroundColor=none;flipH=1;" vertex="1" parent="FHqnlU5S1abYgX6eJz_J-1">
          <mxGeometry x="704" y="155" width="65" height="40" as="geometry" />
        </mxCell>
        <mxCell id="ZSLHKyPtxFfSF65H-u9f-3" value="Our rules" style="fillColor=none;strokeColor=none;fontSize=14;fontColor=#FFFFFF;fontFamily=Verdana;labelBackgroundColor=none;flipH=1;" vertex="1" parent="FHqnlU5S1abYgX6eJz_J-1">
          <mxGeometry x="880" y="155" width="67" height="40" as="geometry" />
        </mxCell>
      </root>
    </mxGraphModel>
  </diagram>
  <diagram id="4ZjuXCXMXrhl5FAm97n5" name="Mobile">
    <mxGraphModel dx="2100" dy="1098" grid="1" gridSize="10" guides="1" tooltips="1" connect="1" arrows="1" fold="1" page="1" pageScale="1" pageWidth="1200" pageHeight="1600" math="0" shadow="0">
      <root>
        <mxCell id="0" />
        <mxCell id="1" parent="0" />
        <mxCell id="4UIH7LJdrKDqno44s9tN-3" value="" style="verticalLabelPosition=bottom;verticalAlign=top;html=1;shape=mxgraph.basic.rect;fillColor2=none;strokeWidth=1;size=20;indent=5;" vertex="1" parent="1">
          <mxGeometry x="580" y="30" width="390" height="844" as="geometry" />
        </mxCell>
        <mxCell id="m_NxzF83WwzUH2nqTJlg-14" value="" style="rounded=0;whiteSpace=wrap;html=1;fillColor=#000000;" vertex="1" parent="1">
          <mxGeometry x="580" y="124" width="390" height="176" as="geometry" />
        </mxCell>
        <mxCell id="m_NxzF83WwzUH2nqTJlg-7" value="" style="verticalLabelPosition=bottom;verticalAlign=top;html=1;shape=mxgraph.basic.rect;fillColor2=none;strokeWidth=1;size=20;indent=5;" vertex="1" parent="1">
          <mxGeometry x="40" y="40" width="390" height="844" as="geometry" />
        </mxCell>
        <mxCell id="m_NxzF83WwzUH2nqTJlg-3" value="Our rides" style="fillColor=none;strokeColor=none;fontSize=14;fontColor=#FFFFFF;fontFamily=Verdana;labelBackgroundColor=none;flipH=1;" vertex="1" parent="1">
          <mxGeometry x="874" y="165" width="66" height="40" as="geometry" />
        </mxCell>
        <mxCell id="m_NxzF83WwzUH2nqTJlg-4" value="Ride with us" style="fillColor=none;strokeColor=none;fontSize=14;fontColor=#FFFFFF;fontFamily=Verdana;labelBackgroundColor=none;flipH=1;" vertex="1" parent="1">
          <mxGeometry x="860" y="242" width="80" height="40" as="geometry" />
        </mxCell>
        <mxCell id="m_NxzF83WwzUH2nqTJlg-5" value="About us" style="fillColor=none;strokeColor=none;fontSize=14;fontColor=#FFFFFF;fontFamily=Verdana;labelBackgroundColor=none;flipH=1;" vertex="1" parent="1">
          <mxGeometry x="875" y="131" width="65" height="40" as="geometry" />
        </mxCell>
        <mxCell id="m_NxzF83WwzUH2nqTJlg-6" value="Our rules" style="fillColor=none;strokeColor=none;fontSize=14;fontColor=#FFFFFF;fontFamily=Verdana;labelBackgroundColor=none;flipH=1;" vertex="1" parent="1">
          <mxGeometry x="873" y="203" width="67" height="40" as="geometry" />
        </mxCell>
        <mxCell id="m_NxzF83WwzUH2nqTJlg-1" value="" style="rounded=0;whiteSpace=wrap;html=1;fillColor=#000000;" vertex="1" parent="1">
          <mxGeometry x="40" y="40" width="390" height="90" as="geometry" />
        </mxCell>
        <mxCell id="m_NxzF83WwzUH2nqTJlg-2" value="Together cycling" style="text;html=1;points=[];align=left;verticalAlign=top;spacingTop=-4;fontSize=30;fontFamily=Verdana;fontColor=#FFFFFF;" vertex="1" parent="1">
          <mxGeometry x="59" y="63" width="340" height="50" as="geometry" />
        </mxCell>
        <mxCell id="m_NxzF83WwzUH2nqTJlg-11" value="" style="group" vertex="1" connectable="0" parent="1">
          <mxGeometry x="356" y="71" width="40" height="30" as="geometry" />
        </mxCell>
        <mxCell id="m_NxzF83WwzUH2nqTJlg-8" value="" style="line;strokeWidth=2;html=1;strokeColor=#FFFFFF;" vertex="1" parent="m_NxzF83WwzUH2nqTJlg-11">
          <mxGeometry width="40" height="10" as="geometry" />
        </mxCell>
        <mxCell id="m_NxzF83WwzUH2nqTJlg-9" value="" style="line;strokeWidth=2;html=1;strokeColor=#FFFFFF;" vertex="1" parent="m_NxzF83WwzUH2nqTJlg-11">
          <mxGeometry y="11" width="40" height="10" as="geometry" />
        </mxCell>
        <mxCell id="m_NxzF83WwzUH2nqTJlg-10" value="" style="line;strokeWidth=2;html=1;strokeColor=#FFFFFF;" vertex="1" parent="m_NxzF83WwzUH2nqTJlg-11">
          <mxGeometry y="20" width="40" height="10" as="geometry" />
        </mxCell>
        <mxCell id="m_NxzF83WwzUH2nqTJlg-12" value="" style="rounded=0;whiteSpace=wrap;html=1;fillColor=#000000;" vertex="1" parent="1">
          <mxGeometry x="580" y="30" width="390" height="90" as="geometry" />
        </mxCell>
        <mxCell id="m_NxzF83WwzUH2nqTJlg-13" value="Together cycling" style="text;html=1;points=[];align=left;verticalAlign=top;spacingTop=-4;fontSize=30;fontFamily=Verdana;fontColor=#FFFFFF;" vertex="1" parent="1">
          <mxGeometry x="599" y="53" width="340" height="50" as="geometry" />
        </mxCell>
        <mxCell id="KsAyDzqlSpxFU8iFOW5b-1" value="&lt;h1 style=&quot;&quot;&gt;&lt;font face=&quot;Verdana&quot; style=&quot;font-size: 40px;&quot;&gt;Peleton in Stockholm&lt;/font&gt;&lt;/h1&gt;&lt;font face=&quot;Verdana&quot; style=&quot;font-size: 16px;&quot;&gt;Group rides through Stockholm urban areas. Structured rides with focus on different techniques, pace and classifications. Respectful rides following common cyclist rules. Get stronger together!&lt;/font&gt;" style="text;html=1;strokeColor=none;fillColor=none;spacing=5;spacingTop=-20;whiteSpace=wrap;overflow=hidden;rounded=0;" vertex="1" parent="1">
          <mxGeometry x="100" y="473" width="250" height="297" as="geometry" />
        </mxCell>
        <mxCell id="Zj4LM4RVpz30Hqm_iZmv-1" value="Ride with us!" style="strokeWidth=1;shadow=0;dashed=0;align=center;html=1;shape=mxgraph.mockup.buttons.button;strokeColor=none;mainText=;buttonStyle=round;fontSize=17;fontStyle=0;fillColor=#0085FC;whiteSpace=wrap;rounded=0;labelBackgroundColor=none;fontColor=#FFFFFF;" vertex="1" parent="1">
          <mxGeometry x="130" y="780" width="190" height="30" as="geometry" />
        </mxCell>
        <mxCell id="B8Qine7rUxWj1bY4w9ny-1" value="Date | Area | Focus | Length&amp;nbsp;" style="text;html=1;strokeColor=none;fillColor=none;align=left;verticalAlign=middle;whiteSpace=wrap;rounded=0;" vertex="1" parent="1">
          <mxGeometry x="769" y="340" width="200" height="30" as="geometry" />
        </mxCell>
        <mxCell id="B8Qine7rUxWj1bY4w9ny-2" value="" style="verticalLabelPosition=bottom;shadow=0;dashed=0;align=center;html=1;verticalAlign=top;strokeWidth=1;shape=mxgraph.mockup.misc.map;" vertex="1" parent="1">
          <mxGeometry x="620" y="340" width="130" height="120" as="geometry" />
        </mxCell>
        <mxCell id="B8Qine7rUxWj1bY4w9ny-3" value="Date | Area | Focus | Length&amp;nbsp;" style="text;html=1;strokeColor=none;fillColor=none;align=left;verticalAlign=middle;whiteSpace=wrap;rounded=0;" vertex="1" parent="1">
          <mxGeometry x="769" y="480" width="200" height="30" as="geometry" />
        </mxCell>
        <mxCell id="B8Qine7rUxWj1bY4w9ny-4" value="" style="verticalLabelPosition=bottom;shadow=0;dashed=0;align=center;html=1;verticalAlign=top;strokeWidth=1;shape=mxgraph.mockup.misc.map;" vertex="1" parent="1">
          <mxGeometry x="620" y="480" width="130" height="120" as="geometry" />
        </mxCell>
        <mxCell id="B8Qine7rUxWj1bY4w9ny-5" value="Date | Area | Focus | Length&amp;nbsp;" style="text;html=1;strokeColor=none;fillColor=none;align=left;verticalAlign=middle;whiteSpace=wrap;rounded=0;" vertex="1" parent="1">
          <mxGeometry x="770" y="620" width="200" height="30" as="geometry" />
        </mxCell>
        <mxCell id="B8Qine7rUxWj1bY4w9ny-6" value="" style="verticalLabelPosition=bottom;shadow=0;dashed=0;align=center;html=1;verticalAlign=top;strokeWidth=1;shape=mxgraph.mockup.misc.map;" vertex="1" parent="1">
          <mxGeometry x="621" y="620" width="130" height="120" as="geometry" />
        </mxCell>
        <mxCell id="B8Qine7rUxWj1bY4w9ny-7" value="Ride with us!" style="strokeWidth=1;shadow=0;dashed=0;align=center;html=1;shape=mxgraph.mockup.buttons.button;strokeColor=none;mainText=;buttonStyle=round;fontSize=17;fontStyle=0;fillColor=#0085FC;whiteSpace=wrap;rounded=0;labelBackgroundColor=none;fontColor=#FFFFFF;" vertex="1" parent="1">
          <mxGeometry x="685" y="785" width="190" height="30" as="geometry" />
        </mxCell>
      </root>
    </mxGraphModel>
  </diagram>
</mxfile>
